<svg width="42" height="42" viewBox="0 0 42 42" fill="none" xmlns="http://www.w3.org/2000/svg">
<path d="M39.1842 1.41422C38.4032 0.633167 37.1368 0.633165 36.3558 1.41421L22.4142 15.3558C21.6332 16.1368 20.3668 16.1368 19.5858 15.3558L5.64421 1.41421C4.86316 0.633165 3.59684 0.633165 2.81579 1.41421L1.41422 2.81578C0.633167 3.59683 0.633165 4.86316 1.41421 5.64421L15.3558 19.5858C16.1368 20.3668 16.1368 21.6332 15.3558 22.4142L1.41421 36.3558C0.633165 37.1368 0.633165 38.4032 1.41421 39.1842L2.81578 40.5858C3.59683 41.3668 4.86316 41.3668 5.64421 40.5858L19.5858 26.6442C20.3668 25.8632 21.6332 25.8632 22.4142 26.6442L36.3558 40.5858C37.1368 41.3668 38.4032 41.3668 39.1842 40.5858L40.5858 39.1842C41.3668 38.4032 41.3668 37.1368 40.5858 36.3558L26.6442 22.4142C25.8632 21.6332 25.8632 20.3668 26.6442 19.5858L40.5858 5.64421C41.3668 4.86316 41.3668 3.59684 40.5858 2.81579L39.1842 1.41422Z" fill="#E93622"/>
</svg>
