<svg width="24" height="24" viewBox="0 0 24 24" fill="none" xmlns="http://www.w3.org/2000/svg">
<rect x="8.28027" y="0.599609" width="15.36" height="15.36" rx="7.68" fill="#EFF5FB"/>
<path d="M9.39093 20.5401V17.596C9.39091 16.8472 10.0014 16.2387 10.7578 16.2337H13.5284C14.2884 16.2337 14.9045 16.8436 14.9045 17.596V17.596V20.5492C14.9043 21.185 15.4169 21.7046 16.0589 21.7195H17.906C19.7473 21.7195 21.24 20.2418 21.24 18.4189V18.4189V10.0439C21.2302 9.32672 20.8901 8.65331 20.3165 8.21524L13.9994 3.17742C12.8927 2.30023 11.3196 2.30023 10.2129 3.17742L3.92354 8.22438C3.34777 8.66067 3.00709 9.33521 3 10.053V18.4189C3 20.2418 4.49268 21.7195 6.334 21.7195H8.18108C8.83906 21.7195 9.37246 21.1915 9.37246 20.5401V20.5401" stroke="#200E32" stroke-width="2" stroke-linecap="round" stroke-linejoin="round"/>
</svg>
