<svg width="19" height="20" viewBox="0 0 19 20" fill="none" xmlns="http://www.w3.org/2000/svg">
<path fill-rule="evenodd" clip-rule="evenodd" d="M14.2854 4.72618C14.0385 2.3625 12.0303 0.519573 9.58944 0.519573C8.3367 0.514327 7.13064 1.00695 6.24088 1.88855C5.46853 2.65381 4.98973 3.65743 4.87681 4.72618H4.87597C3.16582 4.72618 1.72902 5.97529 1.32537 8.14416L0.594922 13.7794C-0.0268432 17.9056 1.91361 19.7195 5.71126 19.7195H13.4847C16.9966 19.7195 19.0957 17.675 18.6647 14.0058L17.9106 8.18193C17.4272 5.98608 16.0274 4.72618 14.354 4.72618H14.2854ZM12.8777 4.72618C12.6391 3.13217 11.2575 1.90939 9.5865 1.90939C8.70228 1.90569 7.85301 2.25259 7.22646 2.87338C6.71777 3.3774 6.38991 4.02828 6.28457 4.72618H12.8777ZM4.87597 6.116H14.354C15.3354 6.116 16.1975 6.89194 16.5359 8.42022L17.2498 13.9569C17.6746 16.9026 16.2605 18.3297 13.4847 18.3297H5.71126C2.70551 18.3297 1.49248 17.1958 1.97827 13.9712L2.70476 8.35946C2.98236 6.87363 3.85384 6.116 4.87597 6.116ZM12.351 8.69527C12.7367 8.69527 13.0494 9.0064 13.0494 9.39019C13.0494 9.74199 12.7867 10.0327 12.4458 10.0788L12.351 10.0851H12.3084C11.9227 10.0851 11.61 9.77397 11.61 9.39019C11.61 9.03838 11.8728 8.74763 12.2137 8.70162L12.3084 8.69527H12.351ZM7.61998 9.39019C7.61998 9.0064 7.3073 8.69527 6.92159 8.69527H6.87898L6.78421 8.70162C6.44333 8.74763 6.18059 9.03838 6.18059 9.39019C6.18059 9.77397 6.49327 10.0851 6.87898 10.0851H6.92159L7.01636 10.0788C7.35725 10.0327 7.61998 9.74199 7.61998 9.39019Z" fill="#0C1A30"/>
</svg>
